<?xml version="1.0" encoding="utf-8"?>
<!-- Generator: Adobe Illustrator 27.0.0, SVG Export Plug-In . SVG Version: 6.00 Build 0)  -->
<svg version="1.1" id="Layer_1" xmlns="http://www.w3.org/2000/svg" xmlns:xlink="http://www.w3.org/1999/xlink" x="0px" y="0px"
	 viewBox="0 0 841.89 595.28" style="enable-background:new 0 0 841.89 595.28;" xml:space="preserve">
<style type="text/css">
	.st0{fill:#FFFFFF;}
	.st1{font-family:'CoolveticaRg-Italic';}
	.st2{font-size:101.5375px;}
	.st3{font-family:'Haverbrooke';}
	.st4{font-size:20.3311px;}
</style>
<g>
	<g>
		<text transform="matrix(1.2377 0 0 1 208.4811 376.1479)" class="st0 st1 st2">WIL</text>
		<text transform="matrix(1.2377 0 0 1 399.4064 376.1118)" class="st0 st1 st2">CAR</text>
	</g>
	<g>
		<path class="st0" d="M270.18,221.73c0.28,0.2,0.57,0.42,0.89,0.65c1.27-0.7,2.72-1.5,4.26-2.35c0.1-0.05,0.21-0.11,0.31-0.17
			c-0.55-0.35-1.04-0.65-1.4-0.88c20.15-4.4,37.97-14.17,56.75-21.31c24.23-9.21,48.7-17.46,74.3-21.91
			c17.89-3.11,35.97-3.48,54.08-3.32c23.35,0.21,46.54,2.35,69.69,5.34c24.06,3.1,47.85,7.52,71.33,13.89
			c-8.78,6.92-106.56,25.43-127.88,24.04c25.65-3.63,49.22-11.34,72.12-21.24c-0.02-0.42-0.04-0.85-0.06-1.28
			c-14.07-2.92-28.09-6.16-42.24-8.68c-18.82-3.34-37.85-4.55-56.98-3.9c-22.51,0.77-44.58,4.52-66.09,10.94
			c-25.16,7.52-50.07,15.87-75.08,23.88c-1.23,0.39-2.38,1.01-3.57,1.52c0,0.47,0,0.93,0.01,1.4c9.37,1.9,18.73,3.8,25.56,5.18
			c-0.52,0.03-1.04,0.06-1.56,0.08c-13.74,0.75-29.82,1.69-45.9,2.35c-2.24,0.1-4.53-1.35-6.83-1.98c-0.59-0.16-1.35-0.05-1.94,0.16
			c-1.12,0.41-2.18,0.99-3.87,0.89c0.48-0.79,0.97-1.57,1.45-2.36L270.18,221.73z"/>
		<path class="st0" d="M479.74,228.4c11.91-1.6,23.88-2.82,35.71-4.87c23.5-4.07,47.04-8.05,70.33-13.16
			c12.8-2.81,25.08-7.98,37.68-11.79c1.88-0.57,4.45-0.02,6.33,0.83c3.94,1.76,7.7,2.57,12.17,2.35c6.65-0.32,13.37,0.76,20.06,1.27
			c22.16,1.67,44.33,2.97,66.54,1.19c4.05-0.33,8.1-0.79,12.07-1.18c-2.87,3.79-6.68,5.56-19.57,8.88
			c13.31,15.55,21.12,32.84,18.4,53.73c-3.05-6.01-5.73-12.04-9.04-17.69c-10.54-17.95-26.71-28.14-46.61-32.91
			c-16.02-3.84-32.36-4.72-48.67-3.72c-17.25,1.06-34.45,3.18-51.63,5.13c-16.32,1.85-32.6,4.1-48.9,6.15
			c-13.82,1.74-27.65,3.51-41.48,5.16c-4.43,0.53-8.9,0.7-13.35,1.04C479.76,228.67,479.75,228.54,479.74,228.4z"/>
		<path class="st0" d="M274.88,220c0,0-47.85,18.63-93.75,21.62s-79.86,37.32-79.86,37.32s35.45-18.66,72.77-24.63
			c37.32-5.97,151.39-30.64,151.39-30.64L274.88,220z"/>
		<path class="st0" d="M151.99,301.55c0,0,34.88-44.2,111.06-42.4c0,0,21.88,3.18,33.87,12.21l-7.53,9.99
			C289.39,281.35,214.79,246.28,151.99,301.55z"/>
		<path class="st0" d="M531.81,280.88c0,0,42.02-37.49,116.73-22.5c0,0,21,6.92,31.24,17.9l-9.15,8.53
			C670.64,284.81,603.25,237.34,531.81,280.88z"/>
	</g>
	<text transform="matrix(1.2377 0 0 1 343.2284 418.8916)" class="st0 st3 st4">MOTORS</text>
</g>
</svg>
